# xmcd CD database file
#
# Track frame offsets:
#	150
#	16710
#	36249
#	61116
#	80941
#	102341
#	130822
#	153792
#	179854
#	202368
#	227823
#
# Disc length: 3394 seconds
#
# Revision: 1
# Processed by: cddbd v1.5.2PL0 Copyright (c) Steve Scherf et al.
# Submitted via: CDex 1.70beta2
#
DISCID=960d400b
DTITLE=Sinne Eeg - Waiting For Dawn
DYEAR=2007
DGENRE=Jazz
TTITLE0=What It Means To Me
TTITLE1=Let's Stay Awake
TTITLE2=Waiting For Dawn
TTITLE3=My Treasure
TTITLE4=Sudden Change Of Weather
TTITLE5=Snow
TTITLE6=Stuck
TTITLE7=Hours Of Ours
TTITLE8=Better than Anything
TTITLE9=Brief Hesitation
TTITLE10=Detour Ahead
EXTD=YEAR: 2007
EXTT0=
EXTT1=
EXTT2=
EXTT3=
EXTT4=
EXTT5=
EXTT6=
EXTT7=
EXTT8=
EXTT9=
EXTT10=
PLAYORDER=
